# Blender v2.77 (sub 0) OBJ File: 'Hammer.blend'
# www.blender.org
mtllib hammer.mtl
o Cube_Cube.001
v 2.077773 3.690868 -0.118034
v -1.357033 3.690868 1.577827
v -2.077773 3.690868 0.118034
v 1.357033 3.690868 -1.577826
v 2.077772 5.223125 -0.118033
v -1.357034 5.223125 1.577827
v -2.077773 5.223125 0.118033
v 1.357033 5.223125 -1.577827
v -1.793331 3.656997 0.885418
v 0.401756 3.656997 0.813718
v 1.793331 3.656997 -0.885418
v -0.401755 3.656997 -0.813718
v 0.388050 5.273768 0.785961
v -1.793331 5.256997 0.885418
v -0.388051 5.273768 -0.785961
v 1.793330 5.256997 -0.885418
v -1.417029 4.456997 1.647584
v 2.169633 4.456997 -0.123252
v -2.169633 4.456997 0.123252
v 1.417029 4.456997 -1.647584
v 0.405274 4.456997 0.820845
v -1.844030 4.456997 0.910450
v -0.405274 4.456997 -0.820845
v 1.844031 4.456997 -0.910450
v 0.789920 3.656997 0.557951
v -0.037315 3.656997 0.966381
v -0.789920 3.656997 -0.557951
v 0.037315 3.656997 -0.966380
v 0.789920 5.256997 0.557951
v -0.037315 5.256997 0.966380
v -0.789920 5.256997 -0.557951
v 0.037314 5.256997 -0.966380
v -0.704237 3.602207 0.347702
v 0.704237 3.602207 -0.347702
v 0.413617 5.256997 -0.204214
v -0.413618 5.256997 0.204215
v 0.789920 4.456997 0.557951
v -0.037315 4.456997 0.966380
v -0.789920 4.456997 -0.557951
v 0.037315 4.456997 -0.966380
v -0.266441 5.416997 0.131549
v 0.266440 5.416997 -0.131549
v 0.024037 5.343666 -0.622514
v -0.508844 5.343666 -0.359416
v -0.024038 5.343666 0.622514
v 0.508843 5.343666 0.359416
v 0.000000 5.532280 0.000000
v -0.242403 5.343666 -0.490965
v 0.242402 5.343666 0.490965
v 0.266580 3.414593 -0.131618
v -0.266580 3.414593 0.131618
v 0.094997 3.414593 -0.311255
v -0.304872 3.414593 -0.113828
v -0.094997 3.414593 0.311255
v 0.304872 3.414593 0.113828
v -0.139917 3.414593 -0.283389
v 0.139917 3.414593 0.283389
v 0.139917 -2.925102 0.283389
v -0.139917 -2.925102 -0.283389
v 0.304872 -2.925102 0.113828
v -0.094997 -2.925102 0.311255
v -0.304872 -2.925102 -0.113828
v 0.094997 -2.925102 -0.311255
v -0.266580 -2.924682 0.131618
v 0.266580 -2.924682 -0.131618
v 0.222150 -5.532280 -0.109682
v -0.222150 -5.532280 0.109682
v 0.105552 -5.532280 -0.345839
v -0.338748 -5.532280 -0.126476
v -0.105552 -5.532280 0.345839
v 0.338748 -5.532280 0.126476
v 0.000000 -5.532280 0.000000
v -0.116598 -5.532280 -0.236158
v 0.116598 -5.532280 0.236158
v 0.139917 0.244746 0.283389
v 0.304872 0.244746 0.113828
v -0.094997 0.244746 0.311255
v -0.139917 0.244746 -0.283389
v -0.304872 0.244746 -0.113828
v 0.094997 0.244746 -0.311255
v -0.266580 0.244956 0.131618
v 0.266580 0.244956 -0.131618
v 0.139917 1.829670 0.283389
v 0.304872 1.829670 0.113828
v -0.094997 1.829670 0.311255
v -0.139917 1.829670 -0.283389
v -0.304872 1.829670 -0.113828
v 0.094997 1.829670 -0.311255
v -0.266580 1.829775 0.131618
v 0.266580 1.829775 -0.131618
v 0.139917 -1.340178 0.283389
v 0.304872 -1.340178 0.113828
v -0.094997 -1.340178 0.311255
v -0.139917 -1.340178 -0.283389
v -0.304872 -1.340178 -0.113828
v 0.094997 -1.340178 -0.311255
v -0.266580 -1.339863 0.131618
v 0.266580 -1.339863 -0.131618
v 0.244365 -4.228481 -0.120650
v 0.100275 -4.228691 -0.328547
v -0.321810 -4.228691 -0.120152
v -0.244365 -4.228481 0.120650
v 0.321810 -4.228691 0.120152
v -0.100275 -4.228691 0.328547
v -0.128257 -4.228691 -0.259773
v 0.128257 -4.228691 0.259773
v 0.255472 -3.576582 -0.126134
v 0.097636 -3.576897 -0.319901
v -0.313341 -3.576897 -0.116990
v -0.255472 -3.576582 0.126134
v 0.313341 -3.576897 0.116990
v -0.097636 -3.576897 0.319901
v -0.134087 -3.576897 -0.271581
v 0.134087 -3.576897 0.271581
v 0.233257 -4.880381 -0.115166
v 0.102913 -4.880486 -0.337193
v -0.330279 -4.880486 -0.123314
v -0.233257 -4.880381 0.115166
v 0.330279 -4.880486 0.123314
v -0.102913 -4.880486 0.337193
v -0.122428 -4.880486 -0.247965
v 0.122428 -4.880486 0.247965
vt 0.8574 0.2568
vt 0.8574 0.3956
vt 0.8574 0.5135
vt 0.9836 0.3956
vt 0.8574 0.1974
vt 0.9836 0.1974
vt 0.8574 0.0772
vt 0.9836 0.6315
vt 0.8574 0.6315
vt 0.8574 0.7703
vt 0.8574 0.9499
vt 0.9836 0.8297
vt 0.8574 0.8297
vt 0.8574 0.2568
vt 0.8574 0.1974
vt 0.8574 0.0772
vt 0.9836 0.1974
vt 0.8574 0.3956
vt 0.9836 0.3956
vt 0.8574 0.5135
vt 0.9836 0.8297
vt 0.8574 0.9499
vt 0.8574 0.8297
vt 0.8574 0.7703
vt 0.9836 0.6315
vt 0.8574 0.6315
vt 0.7917 0.1974
vt 0.7917 0.0772
vt 0.7917 0.1974
vt 0.7917 0.0772
vt 0.7917 0.9499
vt 0.7917 0.8297
vt 0.7917 0.9499
vt 0.7917 0.8297
vt 0.7917 0.6315
vt 0.7917 0.5135
vt 0.7917 0.3956
vt 0.7917 0.6315
vt 0.7917 0.5135
vt 0.7917 0.3956
vt 0.7917 0.2568
vt 0.5288 0.3956
vt 0.5288 0.2568
vt 0.5288 0.1974
vt 0.7917 0.2568
vt 0.7917 0.7703
vt 0.5288 0.6315
vt 0.5288 0.7703
vt 0.5288 0.8297
vt 0.7917 0.7703
vt 0.6221 0.4512
vt 0.6059 0.5135
vt 0.6221 0.5759
vt 0.6058 0.5135
vt 0.6221 0.4512
vt 0.6221 0.5759
vt 0.5288 0.5759
vt 0.5288 0.4512
vt 0.5288 0.5135
vt 0.7506 0.9499
vt 0.6704 0.9503
vt 0.6704 0.9503
vt 0.7506 0.9499
vt 0.6705 0.0768
vt 0.7506 0.0772
vt 0.7506 0.0772
vt 0.6705 0.0768
vt 0.5288 0.9503
vt 0.5288 0.0768
vt 0.3198 0.5982
vt 0.2623 0.5982
vt 0.2623 0.4657
vt 0.3198 0.4657
vt 0.2077 0.5982
vt 0.2077 0.4657
vt 0.0835 0.5982
vt 0.0278 0.5982
vt 0.0278 0.4657
vt 0.0835 0.4657
vt 0.4978 0.5982
vt 0.4426 0.5982
vt 0.4426 0.4657
vt 0.4978 0.4657
vt 0.1454 0.5982
vt 0.1454 0.4657
vt 0.3796 0.5982
vt 0.3796 0.4657
vt 0.4426 0.1691
vt 0.3796 0.1691
vt 0.3796 0.0702
vt 0.4426 0.0702
vt 0.1454 0.1691
vt 0.0835 0.1691
vt 0.0835 0.0702
vt 0.1454 0.0702
vt 0.3198 0.1691
vt 0.3198 0.0702
vt 0.2077 0.1691
vt 0.2077 0.0702
vt 0.4978 0.1691
vt 0.4978 0.0702
vt 0.0278 0.1691
vt 0.0278 0.0702
vt 0.2623 0.1691
vt 0.2623 0.0702
vt 0.2077 0.0038
vt 0.3198 0.0038
vt 0.0835 0.0038
vt 0.4426 0.0038
vt 0.4426 0.8632
vt 0.3796 0.8632
vt 0.3796 0.7307
vt 0.4426 0.7307
vt 0.1454 0.8632
vt 0.0835 0.8632
vt 0.0835 0.7307
vt 0.1454 0.7307
vt 0.3198 0.8632
vt 0.3198 0.7307
vt 0.2077 0.8632
vt 0.2077 0.7307
vt 0.4978 0.8632
vt 0.4978 0.7307
vt 0.0278 0.8632
vt 0.0278 0.7307
vt 0.2623 0.8632
vt 0.2623 0.7307
vt 0.3198 0.9956
vt 0.2623 0.9956
vt 0.2077 0.9956
vt 0.0835 0.9956
vt 0.0278 0.9956
vt 0.4978 0.9956
vt 0.4426 0.9956
vt 0.1454 0.9956
vt 0.3796 0.9956
vt 0.3198 0.3669
vt 0.2623 0.3669
vt 0.2623 0.2680
vt 0.3198 0.2680
vt 0.2077 0.3669
vt 0.2077 0.2680
vt 0.0835 0.3669
vt 0.0278 0.3669
vt 0.0278 0.2680
vt 0.0835 0.2680
vt 0.4978 0.3669
vt 0.4426 0.3669
vt 0.4426 0.2680
vt 0.4978 0.2680
vt 0.1454 0.3669
vt 0.1454 0.2680
vt 0.3796 0.3669
vt 0.3796 0.2680
vn -0.8515 0.0914 0.5164
vn -0.8515 -0.0914 0.5164
vn -0.9277 0.0914 0.3620
vn -0.9277 -0.0914 0.3620
vn 0.9277 -0.0914 -0.3620
vn 0.9277 0.0914 -0.3620
vn 0.8515 -0.0914 -0.5164
vn 0.8515 0.0914 -0.5164
vn -0.0032 -0.9975 0.0702
vn 0.0577 -0.9975 0.0401
vn -0.0577 -0.9975 -0.0401
vn 0.0032 -0.9975 -0.0702
vn 0.0011 0.9997 -0.0239
vn 0.0196 0.9997 0.0137
vn -0.0196 0.9997 -0.0137
vn -0.0011 0.9997 0.0239
vn 0.4536 0.0236 0.8909
vn 0.5297 0.0239 0.8479
vn 0.4536 -0.0236 0.8909
vn 0.5573 -0.0049 0.8303
vn 0.3511 0.0239 0.9360
vn 0.4315 0.0236 0.9018
vn 0.3204 -0.0049 0.9473
vn 0.4315 -0.0236 0.9018
vn -0.4536 0.0236 -0.8909
vn -0.5297 0.0239 -0.8478
vn -0.4536 -0.0236 -0.8909
vn -0.5573 -0.0049 -0.8303
vn -0.3511 0.0239 -0.9360
vn -0.4315 0.0236 -0.9018
vn -0.3204 -0.0049 -0.9473
vn -0.4315 -0.0236 -0.9018
vn -0.4963 0.8173 0.2928
vn -0.5342 0.8173 0.2159
vn 0.5342 0.8173 -0.2159
vn 0.4963 0.8173 -0.2928
vn -0.0767 0.9720 -0.2223
vn -0.1299 0.9720 -0.1961
vn 0.0767 0.9720 0.2223
vn 0.1299 0.9720 0.1961
vn 0.0650 0.9557 -0.2871
vn 0.2674 0.9557 0.1229
vn -0.2674 0.9557 -0.1229
vn -0.0650 0.9557 0.2871
vn 0.2591 -0.9062 -0.3343
vn -0.4229 -0.9062 0.0024
vn 0.4229 -0.9062 -0.0024
vn -0.2591 -0.9062 0.3343
vn -0.0950 -0.9301 -0.3548
vn -0.2239 -0.9301 -0.2911
vn 0.0950 -0.9301 0.3548
vn 0.2239 -0.9301 0.2911
vn 0.9528 0.0000 0.3035
vn 0.4427 0.0000 0.8967
vn 0.4427 -0.0018 0.8966
vn 0.9525 -0.0019 0.3044
vn -0.3383 0.0000 0.9410
vn -0.3374 -0.0019 0.9413
vn -0.9528 0.0000 -0.3035
vn -0.4427 0.0000 -0.8967
vn -0.4427 -0.0018 -0.8966
vn -0.9525 -0.0019 -0.3044
vn 0.3383 0.0000 -0.9410
vn 0.3374 -0.0019 -0.9413
vn -0.8967 0.0000 0.4427
vn -0.8966 -0.0017 0.4427
vn 0.8967 0.0000 -0.4427
vn 0.8966 -0.0017 -0.4427
vn 0.3255 -0.0059 -0.9455
vn 0.8966 -0.0044 -0.4427
vn 0.6324 -0.7089 -0.3122
vn 0.2656 -0.5692 -0.7781
vn -0.8966 -0.0044 0.4427
vn -0.9486 -0.0059 -0.3164
vn -0.7792 -0.5692 -0.2622
vn -0.6324 -0.7089 0.3122
vn 0.9486 -0.0059 0.3164
vn 0.7792 -0.5692 0.2622
vn -0.3255 -0.0059 0.9455
vn -0.2656 -0.5692 0.7781
vn -0.4427 -0.0046 -0.8966
vn -0.3121 -0.7091 -0.6322
vn 0.4427 -0.0046 0.8966
vn 0.3121 -0.7091 0.6322
vn 0.0000 -1.0000 0.0000
vn 0.7215 -0.6516 0.2340
vn 0.3437 -0.6303 0.6961
vn -0.2529 -0.6516 0.7151
vn -0.7215 -0.6516 -0.2340
vn -0.3437 -0.6303 -0.6961
vn 0.2529 -0.6516 -0.7151
vn -0.7131 -0.6062 0.3521
vn 0.7131 -0.6062 -0.3521
vn 0.9515 -0.0042 0.3076
vn 0.4427 -0.0038 0.8966
vn 0.4427 -0.0042 0.8966
vn 0.9501 -0.0050 0.3120
vn -0.3343 -0.0042 0.9424
vn -0.3299 -0.0050 0.9440
vn -0.9515 -0.0042 -0.3076
vn -0.4427 -0.0038 -0.8966
vn -0.4427 -0.0042 -0.8966
vn -0.9501 -0.0050 -0.3120
vn 0.3343 -0.0042 -0.9424
vn 0.3299 -0.0050 -0.9440
vn -0.8966 -0.0036 0.4427
vn -0.8966 -0.0040 0.4427
vn 0.8966 -0.0036 -0.4427
vn 0.8966 -0.0040 -0.4427
usemtl None
s off
f 17/1/1 6/2/1 14/3/1 22/4/1
f 2/5/2 17/1/2 22/6/2 9/7/2
f 22/8/3 14/3/3 7/9/3 19/10/3
f 9/11/4 22/12/4 19/10/4 3/13/4
f 18/14/5 1/15/5 11/16/5 24/17/5
f 5/18/6 18/14/6 24/19/6 16/20/6
f 24/21/7 11/22/7 4/23/7 20/24/7
f 16/20/8 24/25/8 20/24/8 8/26/8
f 26/27/9 2/5/9 9/7/9 33/28/9
f 1/15/10 25/29/10 34/30/10 11/16/10
f 33/31/11 9/11/11 3/13/11 27/32/11
f 11/22/12 34/33/12 28/34/12 4/23/12
f 8/26/13 32/35/13 35/36/13 16/20/13
f 16/20/14 35/36/14 29/37/14 5/18/14
f 31/38/15 7/9/15 14/3/15 36/39/15
f 36/39/16 14/3/16 6/2/16 30/40/16
f 5/18/17 29/37/17 37/41/17 18/14/17
f 29/37/18 13/42/18 21/43/18 37/41/18
f 25/29/19 1/15/19 18/14/19 37/41/19
f 37/41/20 21/43/20 10/44/20 25/29/20
f 13/42/21 30/40/21 38/45/21 21/43/21
f 30/40/22 6/2/22 17/1/22 38/45/22
f 21/43/23 38/45/23 26/27/23 10/44/23
f 38/45/24 17/1/24 2/5/24 26/27/24
f 7/9/25 31/38/25 39/46/25 19/10/25
f 31/38/26 15/47/26 23/48/26 39/46/26
f 19/10/27 39/46/27 27/32/27 3/13/27
f 39/46/28 23/48/28 12/49/28 27/32/28
f 15/47/29 32/35/29 40/50/29 23/48/29
f 32/35/30 8/26/30 20/24/30 40/50/30
f 23/48/31 40/50/31 28/34/31 12/49/31
f 40/50/32 20/24/32 4/23/32 28/34/32
f 36/39/33 30/40/33 45/51/33 41/52/33
f 31/38/34 36/39/34 41/52/34 44/53/34
f 29/37/35 35/36/35 42/54/35 46/55/35
f 35/36/36 32/35/36 43/56/36 42/54/36
f 32/35/37 15/47/37 48/57/37 43/56/37
f 15/47/38 31/38/38 44/53/38 48/57/38
f 30/40/39 13/42/39 49/58/39 45/51/39
f 13/42/40 29/37/40 46/55/40 49/58/40
f 43/56/41 48/57/41 47/59/41 42/54/41
f 42/54/42 47/59/42 49/58/42 46/55/42
f 48/57/43 44/53/43 41/52/43 47/59/43
f 47/59/44 41/52/44 45/51/44 49/58/44
f 28/34/45 34/33/45 50/60/45 52/61/45
f 33/31/46 27/32/46 53/62/46 51/63/46
f 34/30/47 25/29/47 55/64/47 50/65/47
f 26/27/48 33/28/48 51/66/48 54/67/48
f 12/49/49 28/34/49 52/61/49 56/68/49
f 27/32/50 12/49/50 56/68/50 53/62/50
f 10/44/51 26/27/51 54/67/51 57/69/51
f 25/29/52 10/44/52 57/69/52 55/64/52
s 1
f 92/70/53 91/71/54 58/72/55 60/73/56
f 91/71/54 93/74/57 61/75/58 58/72/55
f 95/76/59 94/77/60 59/78/61 62/79/62
f 94/80/60 96/81/63 63/82/64 59/83/61
f 93/74/57 97/84/65 64/85/66 61/75/58
f 98/86/67 92/70/53 60/73/56 65/87/68
f 97/84/65 95/76/59 62/79/62 64/85/66
f 96/81/63 98/86/67 65/87/68 63/82/64
f 116/88/69 115/89/70 66/90/71 68/91/72
f 118/92/73 117/93/74 69/94/75 67/95/76
f 115/89/70 119/96/77 71/97/78 66/90/71
f 120/98/79 118/92/73 67/95/76 70/99/80
f 121/100/81 116/88/69 68/91/72 73/101/82
f 117/93/74 121/102/81 73/103/82 69/94/75
f 122/104/83 120/98/79 70/99/80 74/105/84
f 119/96/77 122/104/83 74/105/84 71/97/78
f 74/105/84 70/99/80 67/95/76 72/106/85
f 71/97/78 74/105/84 72/107/85 66/90/71
f 72/108/85 67/95/76 69/94/75 73/103/82
f 66/90/71 72/109/85 73/101/82 68/91/72
f 88/110/63 90/111/67 82/112/67 80/113/63
f 89/114/65 87/115/59 79/116/59 81/117/65
f 90/111/67 84/118/53 76/119/53 82/112/67
f 85/120/57 89/114/65 81/117/65 77/121/57
f 86/122/60 88/110/63 80/113/63 78/123/60
f 87/115/59 86/124/60 78/125/60 79/116/59
f 83/126/54 85/120/57 77/121/57 75/127/54
f 84/118/53 83/126/54 75/127/54 76/119/53
f 55/128/86 57/129/87 83/126/54 84/118/53
f 57/129/87 54/130/88 85/120/57 83/126/54
f 53/131/89 56/132/90 86/124/60 87/115/59
f 56/133/90 52/134/91 88/110/63 86/122/60
f 54/130/88 51/135/92 89/114/65 85/120/57
f 50/136/93 55/128/86 84/118/53 90/111/67
f 51/135/92 53/131/89 87/115/59 89/114/65
f 52/134/91 50/136/93 90/111/67 88/110/63
f 80/113/63 82/112/67 98/86/67 96/81/63
f 81/117/65 79/116/59 95/76/59 97/84/65
f 82/112/67 76/119/53 92/70/53 98/86/67
f 77/121/57 81/117/65 97/84/65 93/74/57
f 78/123/60 80/113/63 96/81/63 94/80/60
f 79/116/59 78/125/60 94/77/60 95/76/59
f 75/127/54 77/121/57 93/74/57 91/71/54
f 76/119/53 75/127/54 91/71/54 92/70/53
f 111/137/94 114/138/95 106/139/96 103/140/97
f 114/138/95 112/141/98 104/142/99 106/139/96
f 109/143/100 113/144/101 105/145/102 101/146/103
f 113/147/101 108/148/104 100/149/105 105/150/102
f 112/141/98 110/151/106 102/152/107 104/142/99
f 107/153/108 111/137/94 103/140/97 99/154/109
f 110/151/106 109/143/100 101/146/103 102/152/107
f 108/148/104 107/153/108 99/154/109 100/149/105
f 63/82/64 65/87/68 107/153/108 108/148/104
f 64/85/66 62/79/62 109/143/100 110/151/106
f 65/87/68 60/73/56 111/137/94 107/153/108
f 61/75/58 64/85/66 110/151/106 112/141/98
f 59/83/61 63/82/64 108/148/104 113/147/101
f 62/79/62 59/78/61 113/144/101 109/143/100
f 58/72/55 61/75/58 112/141/98 114/138/95
f 60/73/56 58/72/55 114/138/95 111/137/94
f 103/140/97 106/139/96 122/104/83 119/96/77
f 106/139/96 104/142/99 120/98/79 122/104/83
f 101/146/103 105/145/102 121/102/81 117/93/74
f 105/150/102 100/149/105 116/88/69 121/100/81
f 104/142/99 102/152/107 118/92/73 120/98/79
f 99/154/109 103/140/97 119/96/77 115/89/70
f 102/152/107 101/146/103 117/93/74 118/92/73
f 100/149/105 99/154/109 115/89/70 116/88/69
