# Blender v2.77 (sub 0) OBJ File: ''
# www.blender.org
mtllib star.mtl
o Sphere
v -0.000000 -0.000000 -1.149922
v -2.884566 -3.676423 -0.574961
v 2.605107 -3.879462 -0.574961
v 4.494611 1.278785 -0.574961
v 0.172715 4.669795 -0.574961
v -4.387867 1.607308 -0.574961
v -1.826182 -0.519576 -0.863773
v -0.070175 -1.897360 -0.856616
v 1.782812 -0.653057 -0.934460
v 1.172013 1.493749 -0.855262
v -1.058468 1.576245 -0.859010
v 1.782812 -0.653057 -0.048616
v -0.000000 -0.000000 -0.449166
v -0.070175 -1.897360 -0.048616
v 2.605107 -3.879462 0.125795
v 4.494611 1.278785 0.125795
v 1.172013 1.493749 -0.048616
v 0.172715 4.669795 0.125795
v -1.058468 1.576245 -0.048616
v -4.387867 1.607308 0.125795
v -1.826182 -0.519576 -0.048616
v -2.884566 -3.676423 0.125795
v -0.000000 0.000000 -0.930181
v -2.056545 -2.621098 -0.520264
v 1.857306 -2.765854 -0.520264
v 3.204423 0.911706 -0.520264
v 0.123137 3.329320 -0.520264
v -3.128320 1.145927 -0.520264
v -1.301973 -0.370430 -0.726172
v -0.050031 -1.352718 -0.721069
v 1.271052 -0.465595 -0.776568
v 0.835584 1.064965 -0.720104
v -0.754632 1.123780 -0.722776
v 1.271052 -0.465595 -0.145008
v 0.000000 0.000000 -0.430579
v -0.050031 -1.352718 -0.145007
v 1.857306 -2.765854 -0.020662
v 3.204423 0.911706 -0.020662
v 0.835584 1.064965 -0.145008
v 0.123137 3.329320 -0.020662
v -0.754632 1.123780 -0.145008
v -3.128320 1.145927 -0.020662
v -1.301973 -0.370430 -0.145007
v -2.056545 -2.621098 -0.020661
v 0.000000 0.000000 -0.682280
v -1.122409 -1.430527 -0.458557
v 1.013669 -1.509531 -0.458557
v 1.748890 0.497586 -0.458558
v 0.067205 1.817056 -0.458558
v -1.707355 0.625417 -0.458557
v -0.710583 -0.202171 -0.570937
v -0.027306 -0.738278 -0.568152
v 0.693707 -0.254110 -0.598441
v 0.456040 0.581230 -0.567625
v -0.411859 0.613330 -0.569083
v 0.693707 -0.254110 -0.253752
v 0.000000 0.000000 -0.409610
v -0.027306 -0.738278 -0.253752
v 1.013669 -1.509531 -0.185888
v 1.748890 0.497586 -0.185888
v 0.456040 0.581230 -0.253752
v 0.067205 1.817056 -0.185888
v -0.411859 0.613330 -0.253752
v -1.707355 0.625417 -0.185888
v -0.710583 -0.202171 -0.253752
v -1.122409 -1.430527 -0.185887
v -1.477370 -2.786891 -0.715788
v -1.477370 -2.786891 0.038590
v 1.267466 -2.888411 -0.715788
v 1.267466 -2.888411 0.038590
v 2.193959 -2.266259 -0.754710
v 2.193959 -2.266259 0.038590
v 3.138711 0.312864 -0.754710
v 3.138711 0.312864 0.038590
v 2.833312 1.386267 -0.715111
v 2.833312 1.386267 0.038590
v 0.672364 3.081772 -0.715111
v 0.672364 3.081772 0.038590
v -0.442876 3.123020 -0.716985
v -0.442876 3.123020 0.038590
v -2.723167 1.591776 -0.716985
v -2.723167 1.591776 0.038590
v -3.107024 0.543866 -0.719367
v -3.107024 0.543866 0.038590
v -2.355374 -2.098000 -0.719367
v -2.355374 -2.098000 0.038590
vn 0.1239 0.0108 -0.9922
vn 0.0913 0.1233 -0.9882
vn 0.0980 0.1180 -0.9882
vn -0.0857 0.1249 -0.9885
vn 0.0876 -0.0882 -0.9922
vn -0.0831 0.1266 -0.9885
vn -0.0089 -0.1524 -0.9883
vn -0.0024 -0.1527 -0.9883
vn -0.1428 -0.0426 -0.9888
vn -0.1439 -0.0390 -0.9888
vn -0.1660 0.1450 0.9754
vn -0.0648 -0.2107 0.9754
vn -0.1892 -0.1131 0.9754
vn 0.1803 -0.1268 0.9754
vn -0.2204 -0.0034 0.9754
vn 0.0491 -0.2149 0.9754
vn 0.0866 0.2027 0.9754
vn -0.0714 0.2086 0.9754
vn 0.2196 -0.0197 0.9754
vn 0.1763 0.1323 0.9754
vn 0.9690 0.2470 0.0000
vn 0.5802 -0.8145 0.0000
vn -0.9481 0.3179 0.0000
vn 0.0646 0.9979 0.0000
vn 0.9539 0.3001 0.0000
vn -0.6388 -0.7694 0.0000
vn -0.9291 0.3698 0.0000
vn 0.0093 1.0000 0.0000
vn 0.5343 -0.8453 0.0000
vn -0.5953 -0.8035 -0.0000
vn -0.1239 -0.0108 0.9922
vn -0.0913 -0.1233 0.9882
vn -0.0980 -0.1180 0.9882
vn 0.0857 -0.1249 0.9885
vn -0.0876 0.0882 0.9922
vn 0.0831 -0.1266 0.9885
vn 0.0089 0.1524 0.9883
vn 0.0024 0.1527 0.9883
vn 0.1428 0.0426 0.9888
vn 0.1439 0.0390 0.9888
vn 0.1660 -0.1450 -0.9754
vn 0.0648 0.2107 -0.9754
vn 0.1892 0.1131 -0.9754
vn -0.1803 0.1268 -0.9754
vn 0.2204 0.0034 -0.9754
vn -0.0491 0.2149 -0.9754
vn -0.0866 -0.2027 -0.9754
vn 0.0714 -0.2086 -0.9754
vn -0.2196 0.0197 -0.9754
vn -0.1763 -0.1323 -0.9754
vn -0.9690 -0.2470 0.0000
vn -0.5802 0.8145 -0.0000
vn 0.9481 -0.3179 0.0000
vn -0.0646 -0.9979 0.0000
vn -0.9539 -0.3001 0.0000
vn 0.6388 0.7694 -0.0000
vn 0.9291 -0.3698 0.0000
vn -0.0093 -1.0000 0.0000
vn -0.5343 0.8453 0.0000
vn 0.5953 0.8035 0.0000
usemtl None
s off
f 1//1 4//1 73//1 9//1
f 1//2 10//2 75//2 4//2
f 5//3 77//3 10//3 1//3
f 5//4 1//4 11//4 79//4
f 9//5 71//5 3//5 1//5
f 11//6 1//6 6//6 81//6
f 3//7 69//7 8//7 1//7
f 8//8 67//8 2//8 1//8
f 2//9 85//9 7//9 1//9
f 1//10 7//10 83//10 6//10
f 13//11 12//11 74//11 16//11
f 13//12 16//12 76//12 17//12
f 18//13 13//13 17//13 78//13
f 18//14 80//14 19//14 13//14
f 12//15 13//15 15//15 72//15
f 19//16 82//16 20//16 13//16
f 15//17 13//17 14//17 70//17
f 14//18 13//18 22//18 68//18
f 22//19 13//19 21//19 86//19
f 13//20 20//20 84//20 21//20
f 71//21 72//21 15//21 3//21
f 73//22 74//22 12//22 9//22
f 85//23 86//23 21//23 7//23
f 75//24 76//24 16//24 4//24
f 77//25 78//25 17//25 10//25
f 83//26 84//26 20//26 6//26
f 79//27 80//27 18//27 5//27
f 81//28 82//28 19//28 11//28
f 67//29 68//29 22//29 2//29
f 69//30 70//30 14//30 8//30
f 23//1 26//1 31//1
f 23//2 32//2 26//2
f 27//3 32//3 23//3
f 27//4 23//4 33//4
f 31//5 25//5 23//5
f 33//6 23//6 28//6
f 25//7 30//7 23//7
f 30//8 24//8 23//8
f 24//9 29//9 23//9
f 23//10 29//10 28//10
f 35//11 34//11 38//11
f 35//12 38//12 39//12
f 40//13 35//13 39//13
f 40//14 41//14 35//14
f 34//15 35//15 37//15
f 41//16 42//16 35//16
f 37//17 35//17 36//17
f 36//18 35//18 44//18
f 44//19 35//19 43//19
f 35//20 42//20 43//20
f 31//21 34//21 37//21 25//21
f 26//22 38//22 34//22 31//22
f 24//23 44//23 43//23 29//23
f 32//24 39//24 38//24 26//24
f 27//25 40//25 39//25 32//25
f 29//26 43//26 42//26 28//26
f 33//27 41//27 40//27 27//27
f 28//28 42//28 41//28 33//28
f 30//29 36//29 44//29 24//29
f 25//30 37//30 36//30 30//30
f 45//31 53//31 48//31
f 45//32 48//32 54//32
f 49//33 45//33 54//33
f 49//34 55//34 45//34
f 53//35 45//35 47//35
f 55//36 50//36 45//36
f 47//37 45//37 52//37
f 52//38 45//38 46//38
f 46//39 45//39 51//39
f 45//40 50//40 51//40
f 57//41 60//41 56//41
f 57//42 61//42 60//42
f 62//43 61//43 57//43
f 62//44 57//44 63//44
f 56//45 59//45 57//45
f 63//46 57//46 64//46
f 59//47 58//47 57//47
f 58//48 66//48 57//48
f 66//49 65//49 57//49
f 57//50 65//50 64//50
f 53//51 47//51 59//51 56//51
f 48//52 53//52 56//52 60//52
f 46//53 51//53 65//53 66//53
f 54//54 48//54 60//54 61//54
f 49//55 54//55 61//55 62//55
f 51//56 50//56 64//56 65//56
f 55//57 49//57 62//57 63//57
f 50//58 55//58 63//58 64//58
f 52//59 46//59 66//59 58//59
f 47//60 52//60 58//60 59//60
f 8//29 14//29 68//29 67//29
f 3//30 15//30 70//30 69//30
f 9//21 12//21 72//21 71//21
f 4//22 16//22 74//22 73//22
f 10//24 17//24 76//24 75//24
f 5//25 18//25 78//25 77//25
f 11//27 19//27 80//27 79//27
f 6//28 20//28 82//28 81//28
f 7//26 21//26 84//26 83//26
f 2//23 22//23 86//23 85//23
