# Blender v2.77 (sub 0) OBJ File: 'toon-pine-tree.blend'
# www.blender.org
mtllib tree.mtl
o Tree1_Cylinder
v 0.000000 -2.135234 -1.754061
v -0.000000 4.540697 -0.042618
v 1.141872 -2.004117 -1.141872
v 0.033652 4.540697 -0.030136
v 1.754061 -2.135234 0.000000
v 0.047591 4.540697 0.000000
v 1.141872 -2.004117 1.141872
v 0.033652 4.540697 0.030135
v -0.000000 -2.135234 1.754061
v -0.000000 4.540697 0.042618
v -1.141872 -2.004117 1.141872
v -0.033652 4.540697 0.030135
v -1.754061 -2.135234 -0.000000
v -0.047591 4.540697 -0.000000
v -1.141872 -2.004117 -1.141872
v -0.033652 4.540697 -0.030136
v 0.000000 -1.044431 -1.483439
v 0.000000 0.046371 -1.212816
v 0.000000 1.137173 -0.942193
v 0.000000 2.227976 -0.671571
v -0.000000 3.318778 -0.400948
v 0.269262 3.449895 -0.261012
v 0.443784 2.359093 -0.437184
v 0.618306 1.268290 -0.613356
v 0.792828 0.177488 -0.789528
v 0.967350 -0.913314 -0.965700
v 0.413620 3.318778 0.000000
v 0.681709 2.227976 0.000000
v 0.949797 1.137173 0.000000
v 1.217885 0.046371 0.000000
v 1.485973 -1.044431 0.000000
v 0.269262 3.449895 0.261012
v 0.443784 2.359093 0.437184
v 0.618306 1.268290 0.613356
v 0.792828 0.177488 0.789528
v 0.967350 -0.913314 0.965700
v -0.000000 3.318778 0.400948
v -0.000000 2.227976 0.671571
v -0.000000 1.137173 0.942193
v -0.000000 0.046371 1.212816
v -0.000000 -1.044431 1.483439
v -0.269262 3.449895 0.261012
v -0.443784 2.359093 0.437184
v -0.618306 1.268290 0.613356
v -0.792828 0.177488 0.789528
v -0.967350 -0.913314 0.965700
v -0.413620 3.318778 -0.000000
v -0.681709 2.227976 -0.000000
v -0.949797 1.137173 -0.000000
v -1.217885 0.046371 -0.000000
v -1.485973 -1.044431 -0.000000
v -0.269262 3.449895 -0.261012
v -0.443784 2.359093 -0.437184
v -0.618306 1.268290 -0.613356
v -0.792828 0.177488 -0.789528
v -0.967350 -0.913314 -0.965700
v 0.000000 3.237637 -0.656068
v 0.440590 3.368754 -0.427092
v 0.676803 3.237637 0.000000
v 0.440590 3.368754 0.427092
v -0.000000 3.237637 0.656068
v -0.440590 3.368754 0.427092
v -0.676803 3.237637 -0.000000
v -0.440590 3.368754 -0.427092
v 0.000000 2.146834 -0.905614
v 0.598443 2.277951 -0.589543
v 0.919284 2.146834 0.000000
v 0.598443 2.277951 0.589543
v -0.000000 2.146834 0.905614
v -0.598443 2.277951 0.589543
v -0.919285 2.146834 -0.000000
v -0.598443 2.277951 -0.589543
v 0.000000 1.056032 -1.212718
v 0.795835 1.187149 -0.789464
v 1.222505 1.056032 0.000000
v 0.795835 1.187149 0.789464
v -0.000000 1.056032 1.212718
v -0.795835 1.187149 0.789464
v -1.222505 1.056032 -0.000000
v -0.795835 1.187149 -0.789464
v 0.000000 -0.034770 -1.470701
v 0.961410 0.096347 -0.957408
v 1.476848 -0.034770 0.000000
v 0.961410 0.096347 0.957408
v -0.000000 -0.034770 1.470702
v -0.961410 0.096347 0.957408
v -1.476848 -0.034770 -0.000000
v -0.961410 0.096347 -0.957408
v 0.000000 -1.125573 -1.914958
v 1.248743 -0.994456 -1.246614
v 1.918230 -1.125573 0.000000
v 1.248743 -0.994456 1.246614
v -0.000000 -1.125573 1.914958
v -1.248744 -0.994456 1.246614
v -1.918230 -1.125573 -0.000000
v -1.248744 -0.994456 -1.246614
v 1.490596 -2.085258 -1.490596
v 2.289747 -2.216375 0.000000
v 1.490596 -2.085258 1.490596
v -0.000000 -2.216375 2.289747
v -1.490596 -2.085258 1.490596
v -2.289747 -2.216375 -0.000000
v -1.490596 -2.085258 -1.490596
v 0.000000 -2.216375 -2.289747
v -0.000000 -1.746471 -0.408672
v -0.000000 -3.445528 -0.408672
v 0.288975 -1.746471 -0.288975
v 0.288975 -3.445528 -0.288975
v 0.408672 -1.746471 0.000000
v 0.408672 -3.445528 0.000000
v 0.288975 -1.746471 0.288975
v 0.288975 -3.445528 0.288975
v -0.000000 -1.746471 0.408672
v -0.000000 -3.445528 0.408672
v -0.288975 -1.746471 0.288975
v -0.288975 -3.445528 0.288975
v -0.408672 -1.746471 -0.000000
v -0.408672 -3.445528 -0.000000
v -0.288975 -1.746471 -0.288975
v -0.288975 -3.445528 -0.288975
v -0.000000 -2.803201 -0.311412
v 0.220201 -2.803201 -0.220201
v 0.311412 -2.803201 0.000000
v 0.220201 -2.803201 0.220201
v -0.000000 -2.803201 0.311412
v -0.220201 -2.803201 0.220201
v -0.311412 -2.803201 -0.000000
v -0.220201 -2.803201 -0.220201
vn 0.3244 0.4028 -0.8559
vn 0.8448 0.4090 -0.3449
vn 0.8448 0.4090 0.3449
vn 0.3244 0.4028 0.8559
vn -0.3244 0.4028 0.8559
vn -0.8448 0.4090 0.3449
vn 0.0000 1.0000 -0.0000
vn -0.3244 0.4028 -0.8559
vn -0.8448 0.4090 -0.3449
vn -0.0000 -1.0000 -0.0000
vn 0.3595 0.5202 -0.7747
vn 0.3690 0.4687 -0.8026
vn 0.3882 0.3709 -0.8437
vn 0.3699 0.3789 -0.8483
vn 0.3477 0.3570 -0.8670
vn 0.7749 0.5194 -0.3603
vn 0.8021 0.4680 -0.3709
vn 0.8421 0.3702 -0.3922
vn 0.8453 0.3787 -0.3770
vn 0.8614 0.3574 -0.3609
vn 0.7749 0.5194 0.3603
vn 0.8021 0.4680 0.3709
vn 0.8421 0.3702 0.3922
vn 0.8453 0.3787 0.3770
vn 0.8614 0.3574 0.3609
vn 0.3595 0.5202 0.7747
vn 0.3690 0.4687 0.8026
vn 0.3882 0.3709 0.8437
vn 0.3699 0.3789 0.8483
vn 0.3477 0.3570 0.8670
vn -0.3595 0.5202 0.7747
vn -0.3690 0.4687 0.8026
vn -0.3882 0.3709 0.8437
vn -0.3699 0.3789 0.8483
vn -0.3477 0.3570 0.8670
vn -0.7749 0.5194 0.3603
vn -0.8021 0.4680 0.3709
vn -0.8421 0.3702 0.3922
vn -0.8453 0.3787 0.3770
vn -0.8614 0.3574 0.3609
vn -0.3595 0.5202 -0.7747
vn -0.3690 0.4687 -0.8026
vn -0.3882 0.3709 -0.8437
vn -0.3699 0.3789 -0.8483
vn -0.3477 0.3570 -0.8670
vn -0.7749 0.5194 -0.3603
vn -0.8021 0.4680 -0.3709
vn -0.8421 0.3702 -0.3922
vn -0.8453 0.3787 -0.3770
vn -0.8614 0.3574 -0.3609
vn 0.1267 -0.9072 0.4011
vn -0.3905 -0.9112 -0.1313
vn -0.3905 -0.9112 0.1313
vn 0.1267 -0.9072 -0.4011
vn -0.1267 -0.9072 -0.4011
vn 0.3905 -0.9112 0.1313
vn -0.1267 -0.9072 0.4011
vn 0.3905 -0.9112 -0.1313
vn 0.0226 -0.9185 0.3948
vn -0.3898 -0.9206 -0.0230
vn -0.3898 -0.9206 0.0230
vn 0.0226 -0.9185 -0.3948
vn -0.0226 -0.9185 -0.3948
vn 0.3898 -0.9206 0.0230
vn -0.0226 -0.9185 0.3948
vn 0.3898 -0.9206 -0.0230
vn -0.0061 -0.9406 0.3394
vn -0.3370 -0.9415 0.0061
vn -0.3370 -0.9415 -0.0061
vn -0.0061 -0.9406 -0.3394
vn 0.0061 -0.9406 -0.3394
vn 0.3370 -0.9415 -0.0061
vn 0.0061 -0.9406 0.3394
vn 0.3370 -0.9415 0.0061
vn -0.0419 -0.9390 0.3413
vn -0.3401 -0.9395 0.0421
vn -0.3401 -0.9395 -0.0421
vn -0.0419 -0.9390 -0.3413
vn 0.0419 -0.9390 -0.3413
vn 0.3401 -0.9395 -0.0421
vn 0.0419 -0.9390 0.3413
vn 0.3401 -0.9395 0.0421
vn -0.0029 -0.9753 0.2210
vn -0.2207 -0.9753 0.0029
vn -0.2207 -0.9753 -0.0029
vn -0.0029 -0.9753 -0.2210
vn 0.0029 -0.9753 -0.2210
vn 0.2207 -0.9753 -0.0029
vn 0.0029 -0.9753 0.2210
vn 0.2207 -0.9753 0.0029
vn 0.0010 -0.9835 0.1809
vn -0.1809 -0.9835 -0.0010
vn -0.1809 -0.9835 0.0010
vn 0.0010 -0.9835 -0.1809
vn -0.0010 -0.9835 -0.1809
vn 0.1809 -0.9835 0.0010
vn -0.0010 -0.9835 0.1809
vn 0.1809 -0.9835 -0.0010
vn -0.3790 -0.1385 0.9150
vn -0.9150 -0.1385 0.3790
vn -0.9150 -0.1385 -0.3790
vn -0.3790 -0.1385 -0.9150
vn 0.3790 -0.1385 -0.9150
vn 0.9150 -0.1385 -0.3790
vn 0.3790 -0.1385 0.9150
vn 0.9150 -0.1385 0.3790
vn -0.3813 0.0847 0.9206
vn -0.9206 0.0847 0.3813
vn -0.9206 0.0847 -0.3813
vn -0.3813 0.0847 -0.9206
vn 0.3813 0.0847 -0.9206
vn 0.9206 0.0847 -0.3813
vn 0.3813 0.0847 0.9206
vn 0.9206 0.0847 0.3813
usemtl leaves
s off
f 57//1 2//1 4//1 58//1
f 58//2 4//2 6//2 59//2
f 59//3 6//3 8//3 60//3
f 60//4 8//4 10//4 61//4
f 61//5 10//5 12//5 62//5
f 62//6 12//6 14//6 63//6
f 4//7 2//7 16//7 14//7 12//7 10//7 8//7 6//7
f 64//8 16//8 2//8 57//8
f 63//9 14//9 16//9 64//9
f 1//10 3//10 5//10 7//10 9//10 11//10 13//10 15//10
f 104//11 17//11 26//11 97//11
f 89//12 18//12 25//12 90//12
f 81//13 19//13 24//13 82//13
f 73//14 20//14 23//14 74//14
f 65//15 21//15 22//15 66//15
f 97//16 26//16 31//16 98//16
f 90//17 25//17 30//17 91//17
f 82//18 24//18 29//18 83//18
f 74//19 23//19 28//19 75//19
f 66//20 22//20 27//20 67//20
f 98//21 31//21 36//21 99//21
f 91//22 30//22 35//22 92//22
f 83//23 29//23 34//23 84//23
f 75//24 28//24 33//24 76//24
f 67//25 27//25 32//25 68//25
f 99//26 36//26 41//26 100//26
f 92//27 35//27 40//27 93//27
f 84//28 34//28 39//28 85//28
f 76//29 33//29 38//29 77//29
f 68//30 32//30 37//30 69//30
f 100//31 41//31 46//31 101//31
f 93//32 40//32 45//32 94//32
f 85//33 39//33 44//33 86//33
f 77//34 38//34 43//34 78//34
f 69//35 37//35 42//35 70//35
f 101//36 46//36 51//36 102//36
f 94//37 45//37 50//37 95//37
f 86//38 44//38 49//38 87//38
f 78//39 43//39 48//39 79//39
f 70//40 42//40 47//40 71//40
f 103//41 56//41 17//41 104//41
f 96//42 55//42 18//42 89//42
f 88//43 54//43 19//43 81//43
f 80//44 53//44 20//44 73//44
f 72//45 52//45 21//45 65//45
f 102//46 51//46 56//46 103//46
f 95//47 50//47 55//47 96//47
f 87//48 49//48 54//48 88//48
f 79//49 48//49 53//49 80//49
f 71//50 47//50 52//50 72//50
f 21//51 57//51 58//51 22//51
f 22//52 58//52 59//52 27//52
f 27//53 59//53 60//53 32//53
f 32//54 60//54 61//54 37//54
f 37//55 61//55 62//55 42//55
f 42//56 62//56 63//56 47//56
f 52//57 64//57 57//57 21//57
f 47//58 63//58 64//58 52//58
f 20//59 65//59 66//59 23//59
f 23//60 66//60 67//60 28//60
f 28//61 67//61 68//61 33//61
f 33//62 68//62 69//62 38//62
f 38//63 69//63 70//63 43//63
f 43//64 70//64 71//64 48//64
f 53//65 72//65 65//65 20//65
f 48//66 71//66 72//66 53//66
f 19//67 73//67 74//67 24//67
f 24//68 74//68 75//68 29//68
f 29//69 75//69 76//69 34//69
f 34//70 76//70 77//70 39//70
f 39//71 77//71 78//71 44//71
f 44//72 78//72 79//72 49//72
f 54//73 80//73 73//73 19//73
f 49//74 79//74 80//74 54//74
f 18//75 81//75 82//75 25//75
f 25//76 82//76 83//76 30//76
f 30//77 83//77 84//77 35//77
f 35//78 84//78 85//78 40//78
f 40//79 85//79 86//79 45//79
f 45//80 86//80 87//80 50//80
f 55//81 88//81 81//81 18//81
f 50//82 87//82 88//82 55//82
f 17//83 89//83 90//83 26//83
f 26//84 90//84 91//84 31//84
f 31//85 91//85 92//85 36//85
f 36//86 92//86 93//86 41//86
f 41//87 93//87 94//87 46//87
f 46//88 94//88 95//88 51//88
f 56//89 96//89 89//89 17//89
f 51//90 95//90 96//90 56//90
f 1//91 104//91 97//91 3//91
f 3//92 97//92 98//92 5//92
f 5//93 98//93 99//93 7//93
f 7//94 99//94 100//94 9//94
f 9//95 100//95 101//95 11//95
f 11//96 101//96 102//96 13//96
f 15//97 103//97 104//97 1//97
f 13//98 102//98 103//98 15//98
usemtl bark
f 121//99 106//99 108//99 122//99
f 122//100 108//100 110//100 123//100
f 123//101 110//101 112//101 124//101
f 124//102 112//102 114//102 125//102
f 125//103 114//103 116//103 126//103
f 126//104 116//104 118//104 127//104
f 108//7 106//7 120//7 118//7 116//7 114//7 112//7 110//7
f 128//105 120//105 106//105 121//105
f 127//106 118//106 120//106 128//106
f 105//10 107//10 109//10 111//10 113//10 115//10 117//10 119//10
f 105//107 121//107 122//107 107//107
f 107//108 122//108 123//108 109//108
f 109//109 123//109 124//109 111//109
f 111//110 124//110 125//110 113//110
f 113//111 125//111 126//111 115//111
f 115//112 126//112 127//112 117//112
f 119//113 128//113 121//113 105//113
f 117//114 127//114 128//114 119//114
